# xmcd CD database file
#
# Track frame offsets:
#	150
#	58087
#	112970
#	168632
#	200385
#	272110
#
# Disc length: 4356 seconds
#
# Revision: 0
# Processed by: cddbd v1.5.1PL0 Copyright (c) Steve Scherf et al.
# Submitted via: CDex 1.51
#
DISCID=53110206
DTITLE=Various Artist - Dreams Of - Special No. 1
DYEAR=1996
DGENRE=Mix
TTITLE0=Tic Tac Toe - Mega Mix
TTITLE1=MC Lyte - Mix
TTITLE2=Out Cast - Mega Mix
TTITLE3=Fugees - Killing me Softly Remix
TTITLE4=Chart Mix 
TTITLE5=Mission Impossible Mix
EXTD=YEAR: 1996
EXTT0=
EXTT1=
EXTT2=
EXTT3=
EXTT4=
EXTT5=
PLAYORDER=
